<?xml version="1.0" encoding="UTF-8"?>
<svg id="Capa_1" data-name="Capa 1" xmlns="http://www.w3.org/2000/svg" viewBox="0 0 400.34 400.34">
  <defs>
    <style>
      .cls-1 {
        fill: #fff;
      }

      .cls-2 {
        fill: #ff601a;
      }
    </style>
  </defs>
  <circle class="cls-2" cx="200.17" cy="200.17" r="200.17"/>
  <g>
    <path d="m31.71,166.35h16.81l17.75,43.31h.76l17.75-43.31h16.81v64.46h-13.22v-41.95h-.54l-16.68,41.64h-9l-16.68-41.8h-.54v42.11h-13.22v-64.46Z"/>
    <path d="m126.32,231.73c-3.08,0-5.83-.54-8.25-1.62-2.41-1.08-4.32-2.69-5.71-4.82-1.4-2.13-2.09-4.79-2.09-7.98,0-2.69.49-4.94,1.48-6.77.99-1.83,2.33-3.29,4.03-4.41,1.7-1.11,3.64-1.95,5.81-2.52,2.17-.57,4.45-.96,6.85-1.2,2.81-.29,5.08-.57,6.8-.83,1.72-.26,2.97-.66,3.75-1.18.78-.52,1.16-1.3,1.16-2.33v-.19c0-1.99-.62-3.54-1.87-4.63-1.25-1.09-3.02-1.64-5.3-1.64-2.41,0-4.33.53-5.76,1.59-1.43,1.06-2.37,2.39-2.83,3.98l-12.4-1.01c.63-2.94,1.87-5.48,3.71-7.63,1.85-2.15,4.23-3.81,7.16-4.97,2.93-1.16,6.32-1.75,10.18-1.75,2.69,0,5.26.31,7.73.94,2.47.63,4.66,1.61,6.58,2.93,1.92,1.32,3.44,3.02,4.55,5.08,1.11,2.07,1.67,4.54,1.67,7.41v32.61h-12.72v-6.7h-.38c-.78,1.51-1.82,2.84-3.12,3.98-1.3,1.14-2.86,2.04-4.69,2.68-1.83.64-3.93.96-6.33.96Zm3.84-9.25c1.97,0,3.71-.39,5.22-1.18s2.7-1.85,3.56-3.19c.86-1.34,1.29-2.86,1.29-4.56v-5.13c-.42.27-.99.52-1.72.74s-1.54.42-2.44.6c-.9.18-1.8.34-2.71.47-.9.14-1.72.26-2.45.36-1.57.23-2.95.6-4.12,1.1-1.18.5-2.09,1.18-2.74,2.03-.65.85-.98,1.9-.98,3.16,0,1.83.67,3.22,2,4.17,1.33.96,3.03,1.43,5.08,1.43Z"/>
    <path d="m163.96,230.81v-48.34h13v8.43h.5c.88-3,2.36-5.27,4.44-6.81s4.47-2.31,7.18-2.31c.67,0,1.39.04,2.17.13s1.46.2,2.05.35v11.9c-.63-.19-1.5-.36-2.61-.5-1.11-.15-2.13-.22-3.05-.22-1.97,0-3.73.42-5.27,1.27-1.54.85-2.76,2.03-3.65,3.54-.89,1.51-1.34,3.25-1.34,5.22v27.35h-13.41Z"/>
    <path d="m228.32,182.47v10.07h-29.11v-10.07h29.11Zm-22.5-11.58h13.41v45.07c0,1.24.19,2.2.57,2.88.38.68.91,1.16,1.59,1.43.68.27,1.47.41,2.38.41.63,0,1.26-.06,1.89-.17s1.11-.2,1.45-.27l2.11,9.98c-.67.21-1.62.46-2.83.74-1.22.28-2.7.46-4.44.52-3.23.13-6.06-.3-8.48-1.29s-4.31-2.52-5.65-4.6c-1.34-2.08-2-4.7-1.98-7.87v-46.83Z"/>
    <path d="m258.57,231.76c-4.97,0-9.25-1.01-12.83-3.04-3.58-2.02-6.33-4.9-8.26-8.62-1.93-3.72-2.9-8.14-2.9-13.23s.96-9.34,2.9-13.09c1.93-3.76,4.65-6.68,8.17-8.78,3.51-2.1,7.64-3.15,12.38-3.15,3.19,0,6.16.51,8.92,1.53,2.76,1.02,5.17,2.54,7.24,4.58,2.07,2.04,3.68,4.59,4.83,7.66,1.15,3.07,1.73,6.67,1.73,10.78v3.68h-40.82v-8.31h28.2c0-1.93-.42-3.64-1.26-5.13-.84-1.49-2-2.66-3.48-3.51-1.48-.85-3.19-1.27-5.15-1.27s-3.83.47-5.4,1.4c-1.56.93-2.79,2.18-3.67,3.75-.88,1.56-1.33,3.3-1.35,5.21v7.9c0,2.39.45,4.46,1.34,6.2.89,1.74,2.16,3.08,3.79,4.03,1.64.94,3.58,1.42,5.82,1.42,1.49,0,2.85-.21,4.09-.63,1.24-.42,2.3-1.05,3.18-1.89.88-.84,1.55-1.87,2.01-3.08l12.4.82c-.63,2.98-1.92,5.58-3.86,7.79-1.94,2.21-4.44,3.93-7.49,5.16-3.05,1.23-6.57,1.84-10.56,1.84Z"/>
    <path class="cls-1" d="m300.87,230.81h-14.6l22.25-64.46h17.56l22.22,64.46h-14.6l-16.15-49.73h-.5l-16.18,49.73Zm-.91-25.34h34.5v10.64h-34.5v-10.64Z"/>
    <path class="cls-1" d="m369.67,166.35v64.46h-13.63v-64.46h13.63Z"/>
  </g>
</svg>